#!OML:ASF I:\Random Stuff\random\construction\7_22_03\Session 2\subj1.ASF
:FULLY-SPECIFIED
:DEGREES
472
root -1.81408 17.8305 0.521885 -163.366 77.7727 -169.744
lowerback 0.691042 1.55504 1.9691
upperback -2.845 2.20656 1.27342
thorax -3.28783 1.08598 0.128048
lowerneck -20.7291 -6.0177 -4.34183
upperneck 35.0862 -8.68979 6.09908
head 16.66 -2.87455 1.79507
rclavicle -2.63576e-014 1.13307e-014
rhumerus -18.5271 2.5824 -82.811
rradius 66.2258
rwrist -38.4132
rhand -34.6234 3.82161
rfingers 7.12502
rthumb -7.78131 -26.0152
lclavicle -2.63576e-014 1.13307e-014
lhumerus -33.2176 -5.35487 86.3724
lradius 17.923
lwrist 26.9447
lhand -22.3652 63.3501
lfingers 7.12502
lthumb 4.05615 -93.2913
rfemur 2.7829 12.7217 21.8766
rtibia -1.59028e-015
rfoot -4.05593 -34.0412
rtoes 1.35606
lfemur -10.2507 -19.2762 -12.5122
ltibia 15.9492
lfoot -11.6519 10.4357
ltoes -32.4612
473
root -1.80525 17.8264 0.509062 -163.646 77.6861 -169.95
lowerback 0.613722 1.66158 2.01516
upperback -2.80172 2.34508 1.24852
thorax -3.1951 1.15423 0.0754424
lowerneck -20.7285 -6.20884 -4.54978
upperneck 35.052 -8.88937 6.07414
head 16.6691 -2.99013 1.77641
rclavicle 4.28567e-014 3.37934e-015
rhumerus -18.823 2.127 -82.5061
rradius 66.3103
rwrist -38.4397
rhand -34.7202 3.97686
rfingers 7.12502
rthumb -7.87469 -25.8565
lclavicle 4.28567e-014 3.37934e-015
lhumerus -33.954 -6.54596 86.6819
lradius 18.682
lwrist 26.8419
lhand -21.7334 62.2793
lfingers 7.12502
lthumb 4.66625 -92.2079
rfemur 2.94338 12.6208 21.8358
rtibia -1.27222e-014
rfoot -4.45903 -34.0438
rtoes 2.25871
lfemur -10.1629 -19.7094 -12.59
ltibia 15.9877
lfoot -11.7618 10.6746
ltoes -31.0792
474
root -1.80364 17.825 0.503555 -163.811 77.6365 -170.183
lowerback 0.506953 1.8046 2.02132
upperback -2.80817 2.532 1.20182
thorax -3.1369 1.24733 0.0217847
lowerneck -20.662 -6.45246 -4.83693
upperneck 34.948 -9.16728 6.1287
head 16.6447 -3.14084 1.78938
rclavicle -4.19622e-014 -2.5842e-015
rhumerus -19.1324 1.50358 -82.1772
rradius 66.4393
rwrist -38.4643
rhand -34.803 4.23805
rfingers 7.12502
rthumb -7.95462 -25.5923
lclavicle -4.19622e-014 -2.5842e-015
lhumerus -34.686 -7.92629 87.1613
lradius 19.7208
lwrist 27.4634
lhand -21.3837 61.6355
lfingers 7.12502
lthumb 5.00386 -91.5564
rfemur 2.91843 12.5596 21.7638
rtibia -6.36111e-015
rfoot -4.71006 -34.0321
rtoes 2.87872
lfemur -10.2559 -20.021 -12.6019
ltibia 16.0054
lfoot -11.8338 10.8378
ltoes -29.8467
475
root -1.80537 17.824 0.498674 -164.049 77.6038 -170.476
lowerback 0.461371 1.88204 1.97717
upperback -2.8189 2.63247 1.16951
thorax -3.12133 1.2983 0.0116582
lowerneck -20.5625 -6.61409 -5.05929
upperneck 34.8358 -9.34328 6.17471
head 16.5959 -3.24366 1.80943
rclavicle -1.58966e-014 -9.93923e-016
rhumerus -19.4227 0.957184 -81.9279
rradius 66.4969
rwrist -38.4248
rhand -34.8298 4.60279
rfingers 7.12502
rthumb -7.98051 -25.2266
lclavicle -1.58966e-014 -9.93923e-016
lhumerus -35.4129 -9.14031 87.6989
lradius 20.9429
lwrist 28.635
lhand -21.5742 61.4981
lfingers 7.12502
lthumb 4.8199 -91.4233
rfemur 2.89627 12.511 21.6796
rtibia -7.95139e-015
rfoot -4.85804 -33.9981
rtoes 3.04963
lfemur -10.3293 -20.1242 -12.656
ltibia 16.0228
lfoot -11.8163 10.9143
ltoes -30.0527
476
root -1.80711 17.8246 0.494059 -164.12 77.714 -170.566
lowerback 0.439 1.98033 1.9125
upperback -2.80961 2.76096 1.16073
thorax -3.09997 1.36408 0.035925
lowerneck -20.5242 -6.75718 -5.18276
upperneck 34.819 -9.48122 6.08901
head 16.5909 -3.33191 1.76341
rclavicle -4.56584e-015 -2.18663e-015
rhumerus -19.7226 0.33496 -81.7158
rradius 66.4745
rwrist -38.1711
rhand -34.8363 5.11697
rfingers 7.12502
rthumb -7.98679 -24.7121
lclavicle -4.56584e-015 -2.18663e-015
lhumerus -35.9753 -9.72014 88.0488
lradius 21.9965
lwrist 29.3886
lhand -21.7191 61.3642
lfingers 7.12502
lthumb 4.67999 -91.2925
rfemur 2.88069 12.6111 21.6051
rtibia 1.59028e-015
rfoot -4.96759 -33.9763
rtoes 3.16015
lfemur -10.3208 -20.1923 -12.7154
ltibia 16.0322
lfoot -11.8782 11.049
ltoes -29.8206
477
root -1.81119 17.825 0.49038 -163.917 77.8817 -170.38
lowerback 0.449885 2.10547 1.88359
upperback -2.8107 2.92825 1.16976
thorax -3.1072 1.44845 0.0558886
lowerneck -20.5121 -6.90927 -5.24736
upperneck 34.8882 -9.62162 5.91356
head 16.6251 -3.42168 1.6688
rclavicle -4.13224e-014 -1.33186e-014
rhumerus -20.085 -0.375801 -81.486
rradius 66.4609
rwrist -37.8102
rhand -34.8393 5.5436
rfingers 7.12502
rthumb -7.9897 -24.2854
lclavicle -4.13224e-014 -1.33186e-014
lhumerus -36.3445 -9.61661 88.0931
lradius 22.7854
lwrist 29.7056
lhand -21.4749 61.159
lfingers 7.12502
lthumb 4.91578 -91.082
rfemur 2.8291 12.7832 21.5721
rtibia -7.95139e-015
rfoot -5.12459 -33.9935
rtoes 3.65153
lfemur -10.3152 -20.3092 -12.7151
ltibia 16.0471
lfoot -11.9726 11.2599
ltoes -29.484
478
root -1.81737 17.8234 0.487142 -163.538 78.0106 -170.012
lowerback 0.487966 2.20797 1.9032
upperback -2.81855 3.0679 1.18898
thorax -3.13538 1.51781 0.0587096
lowerneck -20.4559 -7.08727 -5.31134
upperneck 34.91 -9.81397 5.76864
head 16.6309 -3.53112 1.57641
rclavicle 2.61215e-014 6.75868e-015
rhumerus -20.4695 -0.917378 -81.2293
rradius 66.4326
rwrist -37.5917
rhand -34.9406 5.90517
rfingers 7.12502
rthumb -8.0874 -23.9201
lclavicle 2.61215e-014 6.75868e-015
lhumerus -36.7442 -9.54283 88.1769
lradius 23.6872
lwrist 30.6672
lhand -21.664 61.3528
lfingers 7.12502
lthumb 4.73325 -91.2799
rfemur 2.77157 12.9289 21.5912
rtibia 0
rfoot -5.21426 -34.0011
rtoes 4.06183
lfemur -10.3305 -20.3631 -12.6649
ltibia 16.0673
lfoot -12.028 11.4723
ltoes -29.734
